<?xml version='1.0' encoding='UTF-8'?>
<!-- Created with Inkscape (http://www.inkscape.org/) --><svg xmlns:i="http://ns.adobe.com/AdobeIllustrator/10.0/" xmlns:dc="http://purl.org/dc/elements/1.1/" xmlns:cc="http://creativecommons.org/ns#" xmlns:rdf="http://www.w3.org/1999/02/22-rdf-syntax-ns#" xmlns:svg="http://www.w3.org/2000/svg" xmlns="http://www.w3.org/2000/svg" xmlns:xlink="http://www.w3.org/1999/xlink" xmlns:sodipodi="http://sodipodi.sourceforge.net/DTD/sodipodi-0.dtd" xmlns:inkscape="http://www.inkscape.org/namespaces/inkscape" width="420.447mm" height="206.026mm" viewBox="15.264 5 420.447 206.026" version="1.1" id="svg8" inkscape:version="0.92.4 (5da689c313, 2019-01-14)" sodipodi:docname="repronim-containers-yoda.svg">
  <defs id="defs2">
    <style id="style6605" type="text/css">
*{stroke-linecap:square;stroke-linejoin:round;}
  </style>
    <style id="style4913" type="text/css">
*{stroke-linecap:square;stroke-linejoin:round;}
  </style>
    <style id="style3417-2" type="text/css">
*{stroke-linecap:square;stroke-linejoin:round;}
  </style>
    <style id="style4958-0" type="text/css">
*{stroke-linecap:square;stroke-linejoin:round;}
  </style>
    <style id="style3581-2" type="text/css">
*{stroke-linecap:square;stroke-linejoin:round;}
  </style>
    <style type="text/css" id="style3417">
*{stroke-linecap:square;stroke-linejoin:round;}
  </style>
    <style type="text/css" id="style4958">
*{stroke-linecap:square;stroke-linejoin:round;}
  </style>
    <style type="text/css" id="style3581">
*{stroke-linecap:square;stroke-linejoin:round;}
  </style>
    <style type="text/css" id="style8438">
*{stroke-linecap:square;stroke-linejoin:round;}
  </style>
    <style type="text/css" id="style9474">
*{stroke-linecap:square;stroke-linejoin:round;}
  </style>
    <style type="text/css" id="style3535">
*{stroke-linecap:square;stroke-linejoin:round;}
  </style>
    <style id="style9474-2" type="text/css">
*{stroke-linecap:square;stroke-linejoin:round;}
  </style>
    <style id="style8438-3" type="text/css">
*{stroke-linecap:square;stroke-linejoin:round;}
  </style>
    <style type="text/css" id="style6">
*{stroke-linecap:square;stroke-linejoin:round;}
  </style>
    <style type="text/css" id="style8438-7">
*{stroke-linecap:square;stroke-linejoin:round;}
  </style>
    <style type="text/css" id="style9474-4">
*{stroke-linecap:square;stroke-linejoin:round;}
  </style>
    <style type="text/css" id="style8438-1">
*{stroke-linecap:square;stroke-linejoin:round;}
  </style>
    <style type="text/css" id="style9474-1">
*{stroke-linecap:square;stroke-linejoin:round;}
  </style>
    <style type="text/css" id="style8438-0">
*{stroke-linecap:square;stroke-linejoin:round;}
  </style>
    <style type="text/css" id="style9474-3">
*{stroke-linecap:square;stroke-linejoin:round;}
  </style>
    <style type="text/css" id="style6-9">
*{stroke-linecap:butt;stroke-linejoin:round;}
  </style>
    <style type="text/css" id="style25835">
*{stroke-linecap:butt;stroke-linejoin:round;}
  </style>
    <style type="text/css" id="style14257">
*{stroke-linecap:butt;stroke-linejoin:round;}
  </style>
    <style type="text/css" id="style19738">
*{stroke-linecap:butt;stroke-linejoin:round;}
  </style>
    <style type="text/css" id="style6-0">
*{stroke-linecap:butt;stroke-linejoin:round;}
  </style>
    <style type="text/css" id="style6-1">
*{stroke-linecap:butt;stroke-linejoin:round;}
  </style>
    <style id="style7251" type="text/css">
*{stroke-linecap:butt;stroke-linejoin:round;}
  </style>
    <style type="text/css" id="style6-5">
*{stroke-linecap:butt;stroke-linejoin:round;}
  </style>
    <style id="style4159" type="text/css">
*{stroke-linecap:square;stroke-linejoin:round;}
  </style>
    <style type="text/css" id="style5873">
*{stroke-linecap:square;stroke-linejoin:round;}
  </style>
    <style type="text/css" id="style8227">
*{stroke-linecap:square;stroke-linejoin:round;}
  </style>
    <style type="text/css" id="style9619">
*{stroke-linecap:square;stroke-linejoin:round;}
  </style>
    <style type="text/css" id="style5346">
*{stroke-linecap:butt;stroke-linejoin:round;stroke-miterlimit:100000;}
  </style>
    <style type="text/css" id="style6471">
*{stroke-linecap:butt;stroke-linejoin:round;stroke-miterlimit:100000;}
  </style>
    <style id="style5274" type="text/css">
*{stroke-linecap:butt;stroke-linejoin:round;stroke-miterlimit:100000;}
  </style>
    <style type="text/css" id="style6-7">
*{stroke-linecap:butt;stroke-linejoin:round;}
  </style>
    <style id="style5443" type="text/css">
*{stroke-linecap:butt;stroke-linejoin:round;}
  </style>
    <style id="style7953" type="text/css">
*{stroke-linecap:butt;stroke-linejoin:round;}
  </style>
    <style id="style14651" type="text/css">
*{stroke-linecap:butt;stroke-linejoin:round;}
  </style>
    <style id="style5027" type="text/css">
*{stroke-linecap:butt;stroke-linejoin:round;}
  </style>
    <style id="style6747" type="text/css">
*{stroke-linecap:butt;stroke-linejoin:round;}
  </style>
    <style id="style8941" type="text/css">
*{stroke-linecap:butt;stroke-linejoin:round;}
  </style>
    <style id="style8978" type="text/css">
*{stroke-linecap:butt;stroke-linejoin:round;}
  </style>
    <style id="style13326" type="text/css">
*{stroke-linecap:butt;stroke-linejoin:round;}
  </style>
    <style id="style16824" type="text/css">
*{stroke-linecap:butt;stroke-linejoin:round;}
  </style>
    <style id="style19652" type="text/css">
*{stroke-linecap:butt;stroke-linejoin:round;}
  </style>
    <style id="style23174" type="text/css">
*{stroke-linecap:butt;stroke-linejoin:round;}
  </style>
    <style id="style25604" type="text/css">
*{stroke-linecap:butt;stroke-linejoin:round;}
  </style>
    <style id="style28652" type="text/css">
*{stroke-linecap:butt;stroke-linejoin:round;}
  </style>
    <style id="style30590" type="text/css">
*{stroke-linecap:butt;stroke-linejoin:round;}
  </style>
    <style id="style32940" type="text/css">
*{stroke-linecap:butt;stroke-linejoin:round;}
  </style>
    <style type="text/css" id="style6-05">
*{stroke-linecap:butt;stroke-linejoin:round;}
  </style>
    <style id="style5443-8" type="text/css">
*{stroke-linecap:butt;stroke-linejoin:round;}
  </style>
    <style id="style7953-8" type="text/css">
*{stroke-linecap:butt;stroke-linejoin:round;}
  </style>
    <style id="style14651-3" type="text/css">
*{stroke-linecap:butt;stroke-linejoin:round;}
  </style>
    <style id="style5027-2" type="text/css">
*{stroke-linecap:butt;stroke-linejoin:round;}
  </style>
    <style id="style6747-1" type="text/css">
*{stroke-linecap:butt;stroke-linejoin:round;}
  </style>
    <style id="style8941-4" type="text/css">
*{stroke-linecap:butt;stroke-linejoin:round;}
  </style>
    <style id="style8978-3" type="text/css">
*{stroke-linecap:butt;stroke-linejoin:round;}
  </style>
    <style id="style13326-3" type="text/css">
*{stroke-linecap:butt;stroke-linejoin:round;}
  </style>
    <style id="style16824-4" type="text/css">
*{stroke-linecap:butt;stroke-linejoin:round;}
  </style>
    <style id="style19652-0" type="text/css">
*{stroke-linecap:butt;stroke-linejoin:round;}
  </style>
    <style id="style23174-9" type="text/css">
*{stroke-linecap:butt;stroke-linejoin:round;}
  </style>
    <style id="style25604-0" type="text/css">
*{stroke-linecap:butt;stroke-linejoin:round;}
  </style>
    <style id="style28652-2" type="text/css">
*{stroke-linecap:butt;stroke-linejoin:round;}
  </style>
    <style id="style30590-7" type="text/css">
*{stroke-linecap:butt;stroke-linejoin:round;}
  </style>
    <style id="style32940-6" type="text/css">
*{stroke-linecap:butt;stroke-linejoin:round;}
  </style>
    <style id="style4159-3" type="text/css">
*{stroke-linecap:square;stroke-linejoin:round;}
  </style>
    <style type="text/css" id="style5873-3">
*{stroke-linecap:square;stroke-linejoin:round;}
  </style>
    <style type="text/css" id="style8227-2">
*{stroke-linecap:square;stroke-linejoin:round;}
  </style>
    <style type="text/css" id="style9619-5">
*{stroke-linecap:square;stroke-linejoin:round;}
  </style>
    <style type="text/css" id="style5346-4">
*{stroke-linecap:butt;stroke-linejoin:round;stroke-miterlimit:100000;}
  </style>
    <style type="text/css" id="style6471-4">
*{stroke-linecap:butt;stroke-linejoin:round;stroke-miterlimit:100000;}
  </style>
    <style id="style5274-2" type="text/css">
*{stroke-linecap:butt;stroke-linejoin:round;stroke-miterlimit:100000;}
  </style>
    <style id="style6605-7" type="text/css">
*{stroke-linecap:square;stroke-linejoin:round;}
  </style>
    <style id="style4913-8" type="text/css">
*{stroke-linecap:square;stroke-linejoin:round;}
  </style>
    <style id="style3417-2-6" type="text/css">
*{stroke-linecap:square;stroke-linejoin:round;}
  </style>
    <style id="style4958-0-8" type="text/css">
*{stroke-linecap:square;stroke-linejoin:round;}
  </style>
    <style id="style3581-2-8" type="text/css">
*{stroke-linecap:square;stroke-linejoin:round;}
  </style>
    <style type="text/css" id="style3417-4">
*{stroke-linecap:square;stroke-linejoin:round;}
  </style>
    <style type="text/css" id="style4958-3">
*{stroke-linecap:square;stroke-linejoin:round;}
  </style>
    <style type="text/css" id="style3581-1">
*{stroke-linecap:square;stroke-linejoin:round;}
  </style>
    <style type="text/css" id="style8438-4">
*{stroke-linecap:square;stroke-linejoin:round;}
  </style>
    <style type="text/css" id="style9474-9">
*{stroke-linecap:square;stroke-linejoin:round;}
  </style>
    <style type="text/css" id="style3535-7">
*{stroke-linecap:square;stroke-linejoin:round;}
  </style>
    <style id="style9474-2-2" type="text/css">
*{stroke-linecap:square;stroke-linejoin:round;}
  </style>
    <style id="style8438-3-7" type="text/css">
*{stroke-linecap:square;stroke-linejoin:round;}
  </style>
    <style type="text/css" id="style6-2">
*{stroke-linecap:square;stroke-linejoin:round;}
  </style>
    <style type="text/css" id="style8438-7-2">
*{stroke-linecap:square;stroke-linejoin:round;}
  </style>
    <style type="text/css" id="style9474-4-6">
*{stroke-linecap:square;stroke-linejoin:round;}
  </style>
    <style type="text/css" id="style8438-1-1">
*{stroke-linecap:square;stroke-linejoin:round;}
  </style>
    <style type="text/css" id="style9474-1-0">
*{stroke-linecap:square;stroke-linejoin:round;}
  </style>
    <style type="text/css" id="style8438-0-6">
*{stroke-linecap:square;stroke-linejoin:round;}
  </style>
    <style type="text/css" id="style9474-3-1">
*{stroke-linecap:square;stroke-linejoin:round;}
  </style>
    <style type="text/css" id="style6-9-5">
*{stroke-linecap:butt;stroke-linejoin:round;}
  </style>
    <style type="text/css" id="style25835-6">
*{stroke-linecap:butt;stroke-linejoin:round;}
  </style>
    <style type="text/css" id="style14257-3">
*{stroke-linecap:butt;stroke-linejoin:round;}
  </style>
    <style type="text/css" id="style19738-9">
*{stroke-linecap:butt;stroke-linejoin:round;}
  </style>
    <style type="text/css" id="style6-0-4">
*{stroke-linecap:butt;stroke-linejoin:round;}
  </style>
    <style type="text/css" id="style6-1-8">
*{stroke-linecap:butt;stroke-linejoin:round;}
  </style>
    <style id="style7251-1" type="text/css">
*{stroke-linecap:butt;stroke-linejoin:round;}
  </style>
    <style type="text/css" id="style6-5-2">
*{stroke-linecap:butt;stroke-linejoin:round;}
  </style>
    <style id="style4159-9" type="text/css">
*{stroke-linecap:square;stroke-linejoin:round;}
  </style>
    <style type="text/css" id="style5873-39">
*{stroke-linecap:square;stroke-linejoin:round;}
  </style>
    <style type="text/css" id="style8227-0">
*{stroke-linecap:square;stroke-linejoin:round;}
  </style>
    <style type="text/css" id="style9619-8">
*{stroke-linecap:square;stroke-linejoin:round;}
  </style>
    <style type="text/css" id="style5346-8">
*{stroke-linecap:butt;stroke-linejoin:round;stroke-miterlimit:100000;}
  </style>
    <style type="text/css" id="style6471-5">
*{stroke-linecap:butt;stroke-linejoin:round;stroke-miterlimit:100000;}
  </style>
    <style id="style5274-0" type="text/css">
*{stroke-linecap:butt;stroke-linejoin:round;stroke-miterlimit:100000;}
  </style>
    <style type="text/css" id="style6-7-9">
*{stroke-linecap:butt;stroke-linejoin:round;}
  </style>
    <style id="style5443-6" type="text/css">
*{stroke-linecap:butt;stroke-linejoin:round;}
  </style>
    <style id="style7953-3" type="text/css">
*{stroke-linecap:butt;stroke-linejoin:round;}
  </style>
    <style id="style14651-8" type="text/css">
*{stroke-linecap:butt;stroke-linejoin:round;}
  </style>
    <style id="style5027-5" type="text/css">
*{stroke-linecap:butt;stroke-linejoin:round;}
  </style>
    <style id="style6747-6" type="text/css">
*{stroke-linecap:butt;stroke-linejoin:round;}
  </style>
    <style id="style8941-1" type="text/css">
*{stroke-linecap:butt;stroke-linejoin:round;}
  </style>
    <style id="style8978-1" type="text/css">
*{stroke-linecap:butt;stroke-linejoin:round;}
  </style>
    <style id="style13326-5" type="text/css">
*{stroke-linecap:butt;stroke-linejoin:round;}
  </style>
    <style id="style16824-9" type="text/css">
*{stroke-linecap:butt;stroke-linejoin:round;}
  </style>
    <style id="style19652-8" type="text/css">
*{stroke-linecap:butt;stroke-linejoin:round;}
  </style>
    <style id="style23174-4" type="text/css">
*{stroke-linecap:butt;stroke-linejoin:round;}
  </style>
    <style id="style25604-8" type="text/css">
*{stroke-linecap:butt;stroke-linejoin:round;}
  </style>
    <style id="style28652-1" type="text/css">
*{stroke-linecap:butt;stroke-linejoin:round;}
  </style>
    <style id="style30590-0" type="text/css">
*{stroke-linecap:butt;stroke-linejoin:round;}
  </style>
    <style id="style32940-3" type="text/css">
*{stroke-linecap:butt;stroke-linejoin:round;}
  </style>
    <style type="text/css" id="style6-05-0">
*{stroke-linecap:butt;stroke-linejoin:round;}
  </style>
    <style id="style5443-8-4" type="text/css">
*{stroke-linecap:butt;stroke-linejoin:round;}
  </style>
    <style id="style7953-8-4" type="text/css">
*{stroke-linecap:butt;stroke-linejoin:round;}
  </style>
    <style id="style14651-3-4" type="text/css">
*{stroke-linecap:butt;stroke-linejoin:round;}
  </style>
    <style id="style5027-2-1" type="text/css">
*{stroke-linecap:butt;stroke-linejoin:round;}
  </style>
    <style id="style6747-1-7" type="text/css">
*{stroke-linecap:butt;stroke-linejoin:round;}
  </style>
    <style id="style8941-4-8" type="text/css">
*{stroke-linecap:butt;stroke-linejoin:round;}
  </style>
    <style id="style8978-3-5" type="text/css">
*{stroke-linecap:butt;stroke-linejoin:round;}
  </style>
    <style id="style13326-3-7" type="text/css">
*{stroke-linecap:butt;stroke-linejoin:round;}
  </style>
    <style id="style16824-4-4" type="text/css">
*{stroke-linecap:butt;stroke-linejoin:round;}
  </style>
    <style id="style19652-0-1" type="text/css">
*{stroke-linecap:butt;stroke-linejoin:round;}
  </style>
    <style id="style23174-9-8" type="text/css">
*{stroke-linecap:butt;stroke-linejoin:round;}
  </style>
    <style id="style25604-0-5" type="text/css">
*{stroke-linecap:butt;stroke-linejoin:round;}
  </style>
    <style id="style28652-2-9" type="text/css">
*{stroke-linecap:butt;stroke-linejoin:round;}
  </style>
    <style id="style30590-7-7" type="text/css">
*{stroke-linecap:butt;stroke-linejoin:round;}
  </style>
    <style id="style32940-6-5" type="text/css">
*{stroke-linecap:butt;stroke-linejoin:round;}
  </style>
    <style id="style4159-3-3" type="text/css">
*{stroke-linecap:square;stroke-linejoin:round;}
  </style>
    <style type="text/css" id="style5873-3-8">
*{stroke-linecap:square;stroke-linejoin:round;}
  </style>
    <style type="text/css" id="style8227-2-8">
*{stroke-linecap:square;stroke-linejoin:round;}
  </style>
    <style type="text/css" id="style9619-5-3">
*{stroke-linecap:square;stroke-linejoin:round;}
  </style>
    <style type="text/css" id="style5346-4-1">
*{stroke-linecap:butt;stroke-linejoin:round;stroke-miterlimit:100000;}
  </style>
    <style type="text/css" id="style6471-4-8">
*{stroke-linecap:butt;stroke-linejoin:round;stroke-miterlimit:100000;}
  </style>
    <style id="style5274-2-9" type="text/css">
*{stroke-linecap:butt;stroke-linejoin:round;stroke-miterlimit:100000;}
  </style>
    <style id="style815">.cls-1{font-size:115.92px;fill:#424242;font-family:Cabin;font-weight:700;}.cls-2{fill:#00505c;font-size:82.11px;}.cls-3{fill:#e2e2e2;}.cls-4{fill:#f7f7f7;}.cls-5{fill:#fff;}.cls-6,.cls-8,.cls-9{fill:none;}.cls-7{fill:#d2d2d2;}.cls-8{stroke:#f5f5f5;stroke-width:4px;}.cls-8,.cls-9{stroke-miterlimit:10;}.cls-9{stroke:gray;stroke-width:6px;}.cls-10{fill:#027c93;}</style>
    </defs>
  <sodipodi:namedview id="base" pagecolor="#ffffff" bordercolor="#666666" borderopacity="1.0" inkscape:pageopacity="0.0" inkscape:pageshadow="2" inkscape:zoom="0.35355339" inkscape:cx="2918.4662" inkscape:cy="641.72402" inkscape:document-units="mm" inkscape:current-layer="g3174" showgrid="false" inkscape:window-width="1920" inkscape:window-height="1133" inkscape:window-x="0" inkscape:window-y="30" inkscape:window-maximized="1" showguides="false" inkscape:guide-bbox="true" fit-margin-top="10" fit-margin-left="10" fit-margin-right="0" fit-margin-bottom="10">
    <sodipodi:guide position="20.263643,606.96224" orientation="1,0" id="guide22176" inkscape:locked="false" inkscape:label="" inkscape:color="rgb(0,0,255)"/>
    <sodipodi:guide position="781.42194,281.03294" orientation="1,0" id="guide22178" inkscape:locked="false" inkscape:label="" inkscape:color="rgb(0,0,255)"/>
    <sodipodi:guide position="193.01018,-297.03369" orientation="0,1" id="guide22180" inkscape:locked="false" inkscape:label="" inkscape:color="rgb(0,0,255)"/>
    <sodipodi:guide position="460.2797,811.9663" orientation="0,1" id="guide22182" inkscape:locked="false" inkscape:label="" inkscape:color="rgb(0,0,255)"/>
    <sodipodi:guide position="705.59992,695.9752" orientation="0,1" id="guide22260" inkscape:locked="false"/>
    <sodipodi:guide position="400.76363,663.6234" orientation="1,0" id="guide22585" inkscape:locked="false" inkscape:label="" inkscape:color="rgb(0,0,255)"/>
    <sodipodi:guide position="420.76363,-36.622752" orientation="1,0" id="guide22595" inkscape:locked="false" inkscape:label="" inkscape:color="rgb(0,0,255)"/>
    <sodipodi:guide position="380.76363,-94.887511" orientation="1,0" id="guide22597" inkscape:locked="false" inkscape:label="" inkscape:color="rgb(0,0,255)"/>
    <sodipodi:guide position="518.6907,77.568378" orientation="-0.42261826,0.90630779" id="guide37987" inkscape:locked="false" inkscape:label="" inkscape:color="rgb(0,0,255)"/>
    <sodipodi:guide position="372.40148,174.46671" orientation="0.42261826,0.90630779" id="guide38359" inkscape:locked="false" inkscape:label="" inkscape:color="rgb(0,0,255)"/>
    <sodipodi:guide position="492.88658,440.50679" orientation="1,0" id="guide2463" inkscape:locked="false"/>
    <sodipodi:guide position="453.07404,410.94337" orientation="1,0" id="guide2274" inkscape:locked="false"/>
    <sodipodi:guide position="446.85634,415.54051" orientation="1,0" inkscape:locked="false" id="guide2276"/>
    <sodipodi:guide position="337.97715,730.4942" orientation="0,1" id="guide2588" inkscape:locked="false"/>
    <sodipodi:guide position="344.33027,784.2704" orientation="0,1" id="guide2596" inkscape:locked="false"/>
  </sodipodi:namedview>
  <metadata id="metadata5">
    <rdf:RDF>
      <cc:Work rdf:about="">
        <dc:format>image/svg+xml</dc:format>
        <dc:type rdf:resource="http://purl.org/dc/dcmitype/StillImage"/>
        <dc:title/>
      </cc:Work>
    </rdf:RDF>
  </metadata>
  <g id="principles" inkscape:label="PRINCIPLES" transform="translate(-19.736358,726.05853)" style="display:inline">
    <rect style="opacity:1;fill:#62704d;fill-opacity:1;fill-rule:evenodd;stroke:none;stroke-width:0.33072916;stroke-linecap:round;stroke-linejoin:miter;stroke-miterlimit:4;stroke-dasharray:none;stroke-dashoffset:0;stroke-opacity:1" id="rect2673" width="400.23422" height="3.9188278" x="40.265793" y="-523.95105"/>
    <g id="g2657" transform="translate(5.2916667)">
      <text id="text9211" y="-664.32599" x="70.921997" style="font-style:normal;font-variant:normal;font-weight:normal;font-stretch:normal;font-size:9.71249485px;line-height:125%;font-family:'Droid Sans';-inkscape-font-specification:'Droid Sans';text-align:start;letter-spacing:0px;word-spacing:0px;text-anchor:start;fill:#333333;fill-opacity:1;stroke:none;stroke-width:0.38849977px;stroke-linecap:butt;stroke-linejoin:miter;stroke-miterlimit:100000;stroke-opacity:1" xml:space="preserve"><tspan style="font-style:normal;font-variant:normal;font-weight:normal;font-stretch:normal;font-size:10.88829803px;font-family:'Latin Modern Sans Demi Cond';-inkscape-font-specification:'Latin Modern Sans Demi Cond';fill:#333333;fill-opacity:1;stroke-width:0.38849977px" y="-664.32599" x="70.921997" id="tspan9209" sodipodi:role="line">Use well-defined, portable computational environments to compute analysis results </tspan></text>
      <text xml:space="preserve" style="font-style:normal;font-variant:normal;font-weight:normal;font-stretch:normal;font-size:9.71249485px;line-height:125%;font-family:'Droid Sans';-inkscape-font-specification:'Droid Sans';text-align:start;letter-spacing:0px;word-spacing:0px;text-anchor:start;fill:#333333;fill-opacity:1;stroke:none;stroke-width:0.38849977px;stroke-linecap:butt;stroke-linejoin:miter;stroke-miterlimit:100000;stroke-opacity:1" x="71.411972" y="-647.35425" id="text9215"><tspan sodipodi:role="line" id="tspan9213" x="71.411972" y="-647.35425" style="font-style:normal;font-variant:normal;font-weight:normal;font-stretch:normal;font-size:10.88829803px;font-family:'Latin Modern Sans Demi Cond';-inkscape-font-specification:'Latin Modern Sans Demi Cond';fill:#333333;fill-opacity:1;stroke-width:0.38849977px">Exhaustively track <tspan id="tspan9450" style="font-style:normal;font-variant:normal;font-weight:600;font-stretch:normal;font-family:'Latin Modern Sans Demi Cond';-inkscape-font-specification:'Latin Modern Sans Demi Cond Semi-Bold'">ALL</tspan> analysis inputs in the same version control system</tspan><tspan id="tspan9217" sodipodi:role="line" x="71.411972" y="-634.12329" style="font-style:normal;font-variant:normal;font-weight:normal;font-stretch:normal;font-size:10.88829803px;font-family:'Latin Modern Sans Demi Cond';-inkscape-font-specification:'Latin Modern Sans Demi Cond';fill:#333333;fill-opacity:1;stroke-width:0.38849977px">as the computed results, including:</tspan></text>
      <text id="text9223" y="-617.03015" x="87.350571" style="font-style:normal;font-variant:normal;font-weight:normal;font-stretch:normal;font-size:9.71249485px;line-height:125%;font-family:'Droid Sans';-inkscape-font-specification:'Droid Sans';text-align:start;letter-spacing:0px;word-spacing:0px;text-anchor:start;fill:#333333;fill-opacity:1;stroke:none;stroke-width:0.38849977px;stroke-linecap:butt;stroke-linejoin:miter;stroke-miterlimit:100000;stroke-opacity:1" xml:space="preserve"><tspan style="font-style:normal;font-variant:normal;font-weight:normal;font-stretch:normal;font-size:10.88829803px;font-family:'Latin Modern Sans Demi Cond';-inkscape-font-specification:'Latin Modern Sans Demi Cond';fill:#333333;fill-opacity:1;stroke-width:0.38849977px" y="-617.03015" x="87.350571" sodipodi:role="line" id="tspan9221">- input data</tspan></text>
      <text xml:space="preserve" style="font-style:normal;font-variant:normal;font-weight:normal;font-stretch:normal;font-size:9.71249485px;line-height:125%;font-family:'Droid Sans';-inkscape-font-specification:'Droid Sans';text-align:start;letter-spacing:0px;word-spacing:0px;text-anchor:start;fill:#333333;fill-opacity:1;stroke:none;stroke-width:0.38849977px;stroke-linecap:butt;stroke-linejoin:miter;stroke-miterlimit:100000;stroke-opacity:1" x="87.350571" y="-599.55756" id="text9229"><tspan id="tspan9227" sodipodi:role="line" x="87.350571" y="-599.55756" style="font-style:normal;font-variant:normal;font-weight:normal;font-stretch:normal;font-size:10.88829803px;font-family:'Latin Modern Sans Demi Cond';-inkscape-font-specification:'Latin Modern Sans Demi Cond';fill:#333333;fill-opacity:1;stroke-width:0.38849977px">- custom analysis code/scripts</tspan></text>
      <text id="text9233" y="-581.48615" x="87.350571" style="font-style:normal;font-variant:normal;font-weight:normal;font-stretch:normal;font-size:9.71249485px;line-height:125%;font-family:'Droid Sans';-inkscape-font-specification:'Droid Sans';text-align:start;letter-spacing:0px;word-spacing:0px;text-anchor:start;fill:#333333;fill-opacity:1;stroke:none;stroke-width:0.38849977px;stroke-linecap:butt;stroke-linejoin:miter;stroke-miterlimit:100000;stroke-opacity:1" xml:space="preserve"><tspan style="font-style:normal;font-variant:normal;font-weight:normal;font-stretch:normal;font-size:10.88829803px;font-family:'Latin Modern Sans Demi Cond';-inkscape-font-specification:'Latin Modern Sans Demi Cond';fill:#333333;fill-opacity:1;stroke-width:0.38849977px" y="-581.48615" x="87.350571" sodipodi:role="line" id="tspan9231">- required computational environments (e.g. as container images)</tspan></text>
      <text id="text9239" y="-563.41473" x="71.520851" style="font-style:normal;font-variant:normal;font-weight:normal;font-stretch:normal;font-size:9.71249485px;line-height:125%;font-family:'Droid Sans';-inkscape-font-specification:'Droid Sans';text-align:start;letter-spacing:0px;word-spacing:0px;text-anchor:start;fill:#333333;fill-opacity:1;stroke:none;stroke-width:0.38849977px;stroke-linecap:butt;stroke-linejoin:miter;stroke-miterlimit:100000;stroke-opacity:1" xml:space="preserve"><tspan style="font-style:normal;font-variant:normal;font-weight:normal;font-stretch:normal;font-size:10.88829803px;font-family:'Latin Modern Sans Demi Cond';-inkscape-font-specification:'Latin Modern Sans Demi Cond';fill:#333333;fill-opacity:1;stroke-width:0.38849977px" y="-563.41473" x="71.520851" sodipodi:role="line" id="tspan9237">Structure study elements (data, code, environments) in modular</tspan><tspan id="tspan9243" style="font-style:normal;font-variant:normal;font-weight:normal;font-stretch:normal;font-size:10.88829803px;font-family:'Latin Modern Sans Demi Cond';-inkscape-font-specification:'Latin Modern Sans Demi Cond';fill:#333333;fill-opacity:1;stroke-width:0.38849977px" y="-550.18378" x="71.520851" sodipodi:role="line">components to facilitate reuse within or outside the context of the</tspan><tspan id="tspan9253" style="font-style:normal;font-variant:normal;font-weight:normal;font-stretch:normal;font-size:10.88829803px;font-family:'Latin Modern Sans Demi Cond';-inkscape-font-specification:'Latin Modern Sans Demi Cond';fill:#333333;fill-opacity:1;stroke-width:0.38849977px" y="-536.95276" x="71.520851" sodipodi:role="line">original study</tspan></text>
      <g style="fill:#62704d;fill-opacity:1" transform="matrix(0.03637609,0,0,0.03637609,52.877093,-673.08249)" id="g9509">
        <path style="fill:#62704d;fill-opacity:1" inkscape:connector-curvature="0" d="M 7.42,145.986 C 9.185,99.193 32.899,56.035 76.25,27.516 c 0.128,0.048 1.251,-0.361 0.738,0.61 -3.434,3.184 -65.172,76.114 -8.344,133.68 0,0 29.858,28.704 53.011,1.468 0,0 22.847,-29.577 -0.289,-74.413 0,0 -5.856,-14.64 -26.955,-23.721 l 16.992,-18.748 c 0,0 14.359,6.161 25.478,22.871 0,0 0.593,-17.593 -12.884,-36.34 l 26.345,-29.89 26.08,29.609 c 0,0 -11.993,16.991 -12.876,36.902 0,0 8.191,-13.477 25.776,-23.151 l 16.686,18.748 c 0,0 -16.045,5.287 -26.794,23.529 -9.242,16.902 -16.357,53.05 0.416,75.223 0,0 18.772,26.618 51.792,-1.571 0,0 60.712,-54.399 -6.226,-133.048 0,0 -3.658,-3.233 0.449,-1.476 29.586,21.54 65.012,49.946 68.67,120.837 -1.444,85.966 -59.012,147.334 -143.074,147.334 C 68.934,295.968 4.95,227.283 7.42,145.986" id="path9507"/>
      </g>
      <g style="fill:#62704d;fill-opacity:1" id="g9522" transform="matrix(0.03637609,0,0,0.03637609,52.877093,-655.61997)">
        <path style="fill:#62704d;fill-opacity:1" id="path9520" d="M 7.42,145.986 C 9.185,99.193 32.899,56.035 76.25,27.516 c 0.128,0.048 1.251,-0.361 0.738,0.61 -3.434,3.184 -65.172,76.114 -8.344,133.68 0,0 29.858,28.704 53.011,1.468 0,0 22.847,-29.577 -0.289,-74.413 0,0 -5.856,-14.64 -26.955,-23.721 l 16.992,-18.748 c 0,0 14.359,6.161 25.478,22.871 0,0 0.593,-17.593 -12.884,-36.34 l 26.345,-29.89 26.08,29.609 c 0,0 -11.993,16.991 -12.876,36.902 0,0 8.191,-13.477 25.776,-23.151 l 16.686,18.748 c 0,0 -16.045,5.287 -26.794,23.529 -9.242,16.902 -16.357,53.05 0.416,75.223 0,0 18.772,26.618 51.792,-1.571 0,0 60.712,-54.399 -6.226,-133.048 0,0 -3.658,-3.233 0.449,-1.476 29.586,21.54 65.012,49.946 68.67,120.837 -1.444,85.966 -59.012,147.334 -143.074,147.334 C 68.934,295.968 4.95,227.283 7.42,145.986" inkscape:connector-curvature="0"/>
      </g>
      <g style="fill:#62704d;fill-opacity:1" transform="matrix(0.03637609,0,0,0.03637609,52.877093,-571.48242)" id="g9526">
        <path style="fill:#62704d;fill-opacity:1" inkscape:connector-curvature="0" d="M 7.42,145.986 C 9.185,99.193 32.899,56.035 76.25,27.516 c 0.128,0.048 1.251,-0.361 0.738,0.61 -3.434,3.184 -65.172,76.114 -8.344,133.68 0,0 29.858,28.704 53.011,1.468 0,0 22.847,-29.577 -0.289,-74.413 0,0 -5.856,-14.64 -26.955,-23.721 l 16.992,-18.748 c 0,0 14.359,6.161 25.478,22.871 0,0 0.593,-17.593 -12.884,-36.34 l 26.345,-29.89 26.08,29.609 c 0,0 -11.993,16.991 -12.876,36.902 0,0 8.191,-13.477 25.776,-23.151 l 16.686,18.748 c 0,0 -16.045,5.287 -26.794,23.529 -9.242,16.902 -16.357,53.05 0.416,75.223 0,0 18.772,26.618 51.792,-1.571 0,0 60.712,-54.399 -6.226,-133.048 0,0 -3.658,-3.233 0.449,-1.476 29.586,21.54 65.012,49.946 68.67,120.837 -1.444,85.966 -59.012,147.334 -143.074,147.334 C 68.934,295.968 4.95,227.283 7.42,145.986" id="path9524"/>
      </g>
    </g>
    <g id="g2662" transform="translate(-59.107895,125.86334)" style="fill:#333333;fill-opacity:1;stroke-linecap:butt;stroke-linejoin:round;stroke-miterlimit:100000">
      <rect y="-841.92188" x="99.107895" height="29.007959" width="400.5" id="rect2654" style="opacity:1;fill:#4d4d4d;fill-opacity:1;fill-rule:evenodd;stroke:none;stroke-width:0.33072916;stroke-linecap:round;stroke-linejoin:miter;stroke-miterlimit:4;stroke-dasharray:none;stroke-dashoffset:0;stroke-opacity:1"/>
      <path style="opacity:1;fill:#62704d;fill-opacity:1;fill-rule:evenodd;stroke:none;stroke-width:0.33072916;stroke-linecap:round;stroke-linejoin:miter;stroke-miterlimit:4;stroke-dasharray:none;stroke-dashoffset:0;stroke-opacity:1" d="M 99.107895,-814.91406 H 499.6079 v -24.98828 H 99.107895 Z" id="rect2690" inkscape:connector-curvature="0" sodipodi:nodetypes="ccccc"/>
      <g style="fill:#ffffff;fill-opacity:1;stroke-linecap:butt;stroke-linejoin:round;stroke-miterlimit:100000" transform="matrix(0.26458333,0,0,0.26458333,434.65803,-789.98599)" id="g2660">
        <text id="text2658" y="-122.54199" x="-1004.4226" style="font-style:normal;font-variant:normal;font-weight:normal;font-stretch:normal;line-height:0%;font-family:'Droid Sans';-inkscape-font-specification:'Droid Sans';text-align:center;letter-spacing:0px;word-spacing:0px;text-anchor:middle;fill:#ffffff;fill-opacity:1;stroke:none;stroke-linecap:square;stroke-linejoin:round;stroke-miterlimit:100000" xml:space="preserve"><tspan style="font-style:normal;font-variant:normal;font-weight:bold;font-stretch:normal;font-size:64px;line-height:1.25;font-family:'Latin Modern Sans Demi Cond';-inkscape-font-specification:'Latin Modern Sans Demi Cond Bold';fill:#ffffff;fill-opacity:1;stroke-linecap:square;stroke-linejoin:round;stroke-miterlimit:100000" y="-122.54199" x="-1004.4226" id="tspan2656" sodipodi:role="line">YODA principles</tspan></text>
      </g>
    </g>
  </g>
  <g id="yodas" inkscape:label="YODAs" inkscape:groupmode="layer" style="display:inline">
    <g id="yoda-principles" inkscape:label="yoda-principles" transform="translate(-19.736358,726.05853)" style="display:inline">
    <g id="g3014" transform="matrix(0.26468733,0,0,0.26468733,498.71416,-590.83685)" style="stroke-width:3.77804255;stroke-linecap:butt;stroke-linejoin:round;stroke-miterlimit:100000">
      <g id="g1689" style="stroke-width:2.94268322;stroke-linecap:butt;stroke-linejoin:round;stroke-miterlimit:100000" transform="matrix(1.2838768,0,0,1.2838768,-379.44276,1144.647)">
        <g style="stroke-width:2.94268322;stroke-linecap:butt;stroke-linejoin:round;stroke-miterlimit:100000" id="g1649" transform="matrix(0.26458333,0,0,0.26458333,-103.27069,-1039.1343)">
          <path id="path1593" d="m 578.6,521.5 c -9.6,1.9 -24.5,4.8 -39.3,7.8 -5.5,1.1 -12.5,2.4 -9.7,-6.3 3.5,-10.7 7.6,-22.1 14.6,-30.5 11,-13.2 52.3,-9.5 63,3.9 49.8,62.5 47.8,78.4 -15.6,126.5 -9.1,6.9 -18.5,13.2 -28.2,19.2 -7.3,4.5 -15.4,8.4 -22.1,-0.8 -6.8,-9.3 -8.9,-18.6 -0.3,-28.8 25.9,-30.8 26.2,-31.2 6.2,-64.3 -6,-10 0.4,-10.6 6.1,-11.6 13.4,-2.3 27,-3.7 40.5,-5.5 4.2,-0.6 11.3,1.1 11.6,-3.8 0.4,-7.7 -7.6,-5 -12.2,-5.8 -3,-0.4 -6.1,0 -14.6,0 z" inkscape:connector-curvature="0" style="fill:#707070;fill-opacity:1;stroke-width:2.94268322;stroke-linecap:butt;stroke-linejoin:round;stroke-miterlimit:100000"/>
          <path id="path1595" d="m 409.7,483.4 c 39.6,-0.6 50.2,6.2 56.7,31.6 3.6,14.2 -1.1,15.8 -13.5,13.1 -14.1,-3 -28.4,-5 -42.7,-6.3 -6,-0.5 -16.5,-3.1 -16.9,5.2 -0.3,6.8 9.9,3.2 15.3,4.3 4.4,0.8 9.1,0.4 13.6,0.9 29.7,3.3 30,3.9 14.5,26.9 -10.8,16 -8.6,35.1 6.2,49.6 4.3,4.2 9.4,7.7 14,11.7 7.4,6.5 4.8,13.5 0.5,20.4 -4.6,7.3 -11.1,7.7 -17.8,4 -29.4,-16.4 -55.7,-36.9 -77.1,-63.1 -5.9,-7.2 -8.3,-16.4 -6.1,-25.9 6.7,-28.7 27.5,-48.4 45.6,-69.7 2.1,-2.4 6.9,-2.4 7.7,-2.7 z" inkscape:connector-curvature="0" style="fill:#707070;fill-opacity:1;stroke-width:2.94268322;stroke-linecap:butt;stroke-linejoin:round;stroke-miterlimit:100000"/>
          <path id="path1597" d="m 611.9,668.6 c -0.6,52.4 5.2,46.1 -46.1,46.4 -46.2,0.3 -46.1,0.1 -38,-46.4 1.8,-10.5 -0.3,-20.6 17.8,-12.3 14.8,6.8 27.4,-8.8 40.4,-16 7.6,-4.2 13.7,-16.1 22.7,-11.2 6.9,3.8 2.5,15.4 3.1,23.5 0.4,5.4 0.1,10.7 0.1,16 z" inkscape:connector-curvature="0" style="fill:#434343;fill-opacity:1;stroke-width:2.94268322;stroke-linecap:butt;stroke-linejoin:round;stroke-miterlimit:100000"/>
          <path id="path1599" d="m 397.3,672.9 c 0,-40.1 0.3,-40.6 33.5,-21.4 17.5,10.1 29.9,7.3 39.2,-10.4 2.4,-4.6 4.5,-11.1 11,-9.3 7.2,2 3.7,9 3.4,13.7 -0.9,13.6 -4.2,27.2 -3.5,40.6 1.3,25.2 -11.3,31.8 -33.3,28.9 -3,-0.4 -6.1,0 -9.1,0 -45.5,-0.1 -40.8,3.5 -41.2,-42.1 z" inkscape:connector-curvature="0" style="fill:#434343;fill-opacity:1;stroke-width:2.94268322;stroke-linecap:butt;stroke-linejoin:round;stroke-miterlimit:100000"/>
          <path id="path1601" d="m 487.4,724.7 c -1.1,-27.5 2.9,-54.6 6.8,-81.7 1.9,-13.4 3.2,-24.9 -15.7,-24.7 -6.6,0 -12,-3.2 -12.5,-10.6 -0.5,-6.6 2.8,-11.8 8.2,-15.3 7.1,-4.6 11,0.4 14.9,5.5 2.8,3.6 5.5,8.8 9.2,9.8 31.1,8.4 24.6,30.8 21.3,53 -5,33.8 -8.9,67.8 -13.3,101.6 -0.9,6.6 -0.7,15.5 -10.1,15 -9.2,-0.5 -8.4,-9.5 -8.6,-16.1 -0.6,-12.2 -0.2,-24.4 -0.2,-36.5 z" inkscape:connector-curvature="0" style="fill:#986e4b;stroke-width:2.94268322;stroke-linecap:butt;stroke-linejoin:round;stroke-miterlimit:100000"/>
          <g id="g1617" style="fill:#acc473;stroke-width:2.94268322;stroke-linecap:butt;stroke-linejoin:round;stroke-miterlimit:100000">
            <path style="fill:#495137;fill-opacity:1;stroke-width:2.94268322;stroke-linecap:butt;stroke-linejoin:round;stroke-miterlimit:100000" inkscape:connector-curvature="0" d="M 500.3,481.8 C 435,477.3 373.2,470 314,448.5 233.8,419.4 212.1,371.4 237.2,279.4 c 4.2,-15.4 11.9,-29.7 21.2,-42.8 29.6,-41.4 58.9,-83.1 89.4,-123.8 74.7,-99.8 228.9,-99.6 303.4,0.9 31.7,42.7 64.7,84.5 92.8,129.8 20.7,33.4 28.6,69.6 25.9,108.9 -2.7,38.9 -21.9,65 -55.7,82.5 -48.8,25.2 -101.9,34.5 -155.5,41.4 -20.3,2.6 -40.8,3.9 -58.4,5.5 z" id="path1669" sodipodi:nodetypes="ccccccccccc"/>
            <path id="path1603" d="M 500.3,481.8 C 435,477.3 373.2,470 314,448.5 233.8,419.4 212.1,371.4 237.2,279.4 c 4.2,-15.4 11.9,-29.7 21.2,-42.8 29.6,-41.4 58.9,-83.1 89.4,-123.8 74.7,-99.8 228.9,-99.6 303.4,0.9 31.7,42.7 64.7,84.5 92.8,129.8 20.7,33.4 28.6,69.6 25.9,108.9 -2.7,38.9 -21.9,65 -55.7,82.5 -48.8,25.2 -101.9,34.5 -155.5,41.4 -20.3,2.6 -40.8,3.9 -58.4,5.5 z M 415,285.8 c -0.5,-23.2 -19.8,-41.8 -42.4,-41.1 -22.8,0.7 -40.8,20 -40.3,43.3 0.5,23 20,42 42.5,41.4 22.4,-0.8 40.7,-20.5 40.2,-43.6 z m 209.9,43.4 c 22.5,0.2 41.3,-19.1 41.3,-42.3 0.1,-22.8 -19,-42.3 -41.5,-42.2 -22.5,0.1 -41.5,19.5 -41.4,42.3 0.1,22.9 18.9,42 41.6,42.2 z m -42.7,51.1 c -0.6,0.3 -4.1,0.9 -6.2,2.9 -33,31.2 -113.6,32.6 -147.2,2.9 -7.9,-7 -6.7,-10.5 1.8,-14.4 4,-1.8 10,-3.6 6.6,-9.2 -3.1,-5.3 -8.4,-0.9 -12.1,0.8 -17.7,8 -32.5,19.8 -42.3,36.7 -4.6,7.9 -15.6,18.9 -6,25.4 6.5,4.3 7.6,-12 12.9,-17.8 1,-1.1 1.6,-2.6 2.4,-3.9 8.9,-14.4 16.1,-21.4 34.9,-8 47.1,33.6 97.1,28.8 145.7,1.2 24.9,-14.1 26.7,-14.2 38.7,12 1.3,2.8 2.4,5.6 3.5,8.4 1.4,3.5 2.5,8.4 7.1,6.9 4,-1.4 3.3,-6.4 2.2,-9.9 -8.2,-27.1 -26.7,-45.3 -51,-58.2 -2.7,-1.4 -6,-2.4 -7.9,1.1 -1.8,3.4 0.8,5.5 3.1,7.4 4.5,3.7 11.7,4.2 13.8,15.7 z M 462.4,135.8 c -43.6,2 -84.4,8.2 -120.8,31.1 -3.7,2.3 -9.5,5.1 -7.4,9.9 2.4,5.7 7.7,2.2 11.4,0 36,-21.9 75.8,-28.7 117.1,-30 5.7,-0.2 15.6,1.5 15.1,-5.4 -0.6,-8.6 -10.8,-4.9 -15.4,-5.6 z m 74.1,-0.2 c -4.6,0.9 -15.8,-2.7 -15.8,4.9 -0.1,10.4 11.6,6.3 18.1,6.4 39.2,1 76.6,8.2 111.1,27.9 4.1,2.4 10.2,8.9 13.6,2.7 3.8,-7 -5.2,-9.5 -9.9,-12.3 -35.4,-21.4 -74.9,-27.4 -117.1,-29.6 z m 1.8,-37 c -8.4,1.7 -19,-2.9 -19.9,5.2 -0.9,8.1 9.8,6.4 15.9,7.1 19.6,2.3 39.2,4.1 58.8,6.1 3.6,0.4 8.6,2.2 9.9,-2.2 1.9,-6.2 -4.1,-7.3 -8.3,-8 -19.4,-3.1 -38.9,-5.7 -56.4,-8.2 z m -77.7,0.2 c -16.5,2.2 -35.2,4.6 -53.7,7.3 -4.9,0.7 -12.6,0.6 -11.8,7.4 1,8.1 8.5,3.7 12.9,3 18.6,-3.2 37.2,-5.1 56.1,-5.5 6,-0.1 16.7,2.5 16,-6.5 -0.5,-8.1 -11,-4.4 -19.5,-5.7 z M 434.5,81.3 c 12.7,-0.9 25.4,-1.9 38.2,-2.8 3.9,-0.3 8.3,-1.6 8.6,-5.7 0.3,-4.4 -4.2,-5.6 -8,-6.1 -13.7,-1.6 -27,1.3 -40.1,4.8 -3.4,0.9 -7.6,2.8 -6,7.7 1,3.3 4.2,3.6 7.3,2.1 z M 537.3,65.9 c -7.5,1.9 -18.9,-3.4 -19.3,6.8 -0.2,7.2 11,4.8 17.3,5.8 8.9,1.4 17.8,2.3 26.7,3.4 3.6,0.5 8,1.6 9.4,-3.1 1.4,-4.9 -3,-6.5 -6.4,-7.3 -9.4,-2.3 -19,-3.9 -27.7,-5.6 z" inkscape:connector-curvature="0" style="stroke-width:2.94268322;stroke-linecap:butt;stroke-linejoin:round;stroke-miterlimit:100000"/>
            <path id="path1605" d="m 848.7,127.9 c -46,-0.8 -89.1,10.3 -128.8,33.1 -13.6,7.8 -21,3.8 -27.3,-7.9 -8.1,-15.3 7.7,-14.2 13.6,-17.2 80.7,-41.3 164.2,-45.5 249.7,-16.3 5.5,1.9 14.4,2.6 14.6,8.4 0.2,6.4 -9,7 -14.2,9.4 -28.5,13 -50.8,32.3 -67.1,59.4 -23.7,39.4 -58.6,67.5 -97.8,90.4 -4.3,2.5 -12.4,12.4 -15.8,0.2 -2.7,-9.5 -17.2,-20.8 -2.8,-30.1 47.8,-30.9 70.3,-88.6 122.6,-114.4 2.3,-1.1 4.7,-4.6 4.8,-7 0.1,-4.8 -4.4,-5.5 -8.2,-5.8 -14.5,-0.9 -28.9,-1.5 -43.3,-2.2 z" inkscape:connector-curvature="0" style="stroke-width:2.94268322;stroke-linecap:butt;stroke-linejoin:round;stroke-miterlimit:100000"/>
            <path id="path1607" d="m 155.7,101.7 c 48.3,-3.3 93.5,14.4 137.8,35 5.9,2.7 19.2,3 12.2,16.1 -5.4,10.1 -11.8,16.6 -25.1,8.8 -50.4,-29.5 -105.5,-36.7 -162.8,-32.2 -6.4,0.5 -15.9,-2.6 -18.5,4.9 -3.3,9.8 8,11.3 13.6,15.2 26.4,18.4 49.7,39.9 67.9,66.7 10.9,15.9 25,28.7 41.5,38.4 17.3,10.2 4.5,21.6 1,31.1 -5.4,14.5 -13.7,2.4 -19.2,-0.8 C 168.3,264 136,238.2 114,202.8 95.3,172.6 71.7,149.5 39.1,135.7 35,134 28.7,132.8 29.3,127.9 c 0.4,-2.8 6.4,-5.6 10.4,-7.1 36.9,-13.2 74.8,-20 116,-19.1 z" inkscape:connector-curvature="0" style="stroke-width:2.94268322;stroke-linecap:butt;stroke-linejoin:round;stroke-miterlimit:100000"/>
            <path id="path1609" d="m 532.3,755.8 c -8.1,-0.3 -15.4,-0.3 -13.9,-11.9 1.1,-8.4 0.6,-17 12.9,-16.9 27.9,0.2 55.9,0 83.8,0.2 8.2,0.1 14.1,4.9 19,11 3.3,4.1 7.1,8.8 4.9,14.3 -2.5,6.5 -9.1,3.9 -13.9,4 -15.1,0.3 -30.2,0.1 -45.3,0.1 -7.5,-0.1 -31.6,-0.3 -47.5,-0.8 z" inkscape:connector-curvature="0" style="stroke-width:2.94268322;stroke-linecap:butt;stroke-linejoin:round;stroke-miterlimit:100000"/>
            <path id="path1611" d="m 420.1,757.3 c -13.7,0 -27.3,-0.4 -41,0.1 -14.4,0.5 -13.4,-6.7 -7.8,-15.3 5.4,-8.5 12.7,-15.2 23.9,-15.2 22.8,0 45.5,0 68.3,-0.1 8.9,0 14.4,2.4 13.9,12.9 -0.5,9.6 -1.3,13.3 -14,15.8 -16.8,2 -43.3,1.2 -43.3,1.8 z" inkscape:connector-curvature="0" style="stroke-width:2.94268322;stroke-linecap:butt;stroke-linejoin:round;stroke-miterlimit:100000"/>
            <path id="path1613" d="m 551.3,576.5 c -1.4,17.8 -10.2,28.8 -28.4,29.4 -18.2,0.6 -28.4,-9.8 -29.9,-27.5 -1.4,-15.9 11.9,-29.3 28.1,-29.3 18.1,0.1 27.8,9.9 30.2,27.4 z" inkscape:connector-curvature="0" style="stroke-width:2.94268322;stroke-linecap:butt;stroke-linejoin:round;stroke-miterlimit:100000"/>
            <path id="path1615" d="m 441,582.9 c 0.2,-20.4 10.4,-30 27.8,-31.4 6.9,-0.6 15.8,0 16.8,10.6 0.4,3.9 -30.4,40.3 -33.7,39.2 -9.8,-3.2 -9.7,-12.3 -10.9,-18.4 z" inkscape:connector-curvature="0" style="stroke-width:2.94268322;stroke-linecap:butt;stroke-linejoin:round;stroke-miterlimit:100000"/>
          </g>
          <g id="g1623" style="fill:#62704d;stroke-width:2.94268322;stroke-linecap:butt;stroke-linejoin:round;stroke-miterlimit:100000">
            <path id="path1619" d="m 874.2,144.4 c -2,1.8 -4.1,3.9 -6.5,5.6 -25.5,18.5 -45.7,42.1 -63.9,67.5 -2.6,3.7 -6,6.8 -9.3,10 -27.6,27.1 -30.4,26.8 -51.3,-4.3 -7.2,-10.7 -14.1,-21.7 -22.4,-31.6 -9.9,-11.7 -5.9,-16.9 6.2,-23.5 42.7,-23 88.3,-31.4 136.3,-29.2 3.8,0.2 9.4,-2.1 10.9,5.5 z" inkscape:connector-curvature="0" style="stroke-width:2.94268322;stroke-linecap:butt;stroke-linejoin:round;stroke-miterlimit:100000"/>
            <path id="path1621" d="m 155.3,138.9 c 41.2,-0.3 79.3,10.9 115.9,29.3 12.4,6.2 15.4,12.1 6.1,24 -11.2,14.3 -21.5,29.5 -30.8,45.1 -6.6,11.2 -13,13 -23.5,5.5 -12.5,-9 -23.9,-18.9 -32.6,-31.5 -14.8,-21.4 -32.2,-40.2 -52.8,-56.2 -4.6,-3.6 -12.5,-10.3 -11.6,-12.3 3.4,-7.4 11.7,-2.9 18,-3.8 3.7,-0.6 7.5,-0.1 11.3,-0.1 z" inkscape:connector-curvature="0" style="stroke-width:2.94268322;stroke-linecap:butt;stroke-linejoin:round;stroke-miterlimit:100000"/>
          </g>
        </g>
      </g>
    </g>
    </g>
    </g>
  </svg>